<svg xmlns="http://www.w3.org/2000/svg" width="38" height="38" fill="none"><g stroke="#fff" stroke-linecap="round" stroke-linejoin="round" stroke-width="2.1" clip-path="url(#a)"><path d="M34.83 10.731a4.26 4.26 0 0 0-2.971-3.062c-2.634-.644-13.17-.644-13.17-.644s-10.534 0-13.168.705a4.26 4.26 0 0 0-2.97 3.062 44.4 44.4 0 0 0-.705 8.1 44.4 44.4 0 0 0 .704 8.162 4.26 4.26 0 0 0 2.971 2.94c2.634.704 13.169.704 13.169.704s10.535 0 13.169-.704a4.26 4.26 0 0 0 2.97-3.062c.478-2.653.714-5.344.705-8.04a44.4 44.4 0 0 0-.705-8.161"/><path d="m15.245 23.9 8.805-5.008-8.805-5.007z"/></g><defs><clipPath id="a"><path fill="#fff" d="M.315.9h36.75v36.75H.315z"/></clipPath></defs></svg>